# xmcd
#
# Track frame offsets:
#	150
#	20749
#	41050
#	55571
#	69453
#	100235
#	116465
#	130854
#	147600
#	162574
#	176334
#	192790
#	211841
#	225026
#	245763
#
# Disc length: 3489 seconds
#
# Revision: 0
# Processed by: cddbd v1.4PL0 Copyright (c) Steve Scherf et al.
# Submitted via: dBpowerAMP V4.0
#
DISCID=cd0d9f0f
DTITLE=Various Artist - The Ultimate Zydeco Party
DYEAR=1900
DGENRE=
TTITLE0=Rockin' Dopsie, Jr. - Jambalaya
TTITLE1=Beau Jocque - Pine Point Trail Ride
TTITLE2=Rockin' Dopsie, Jr. - Zydeco Boogaloo
TTITLE3=Rockin' Sidney - Sqeeze That Thang
TTITLE4=Beau Jocque - No Good Woman
TTITLE5=Thomas "Big Hat" Fields - Mom Et Pop
TTITLE6=Nolton Simien - Tee Gallow
TTITLE7=Fernest Arceneaux - Going Back To Big Mamou
TTITLE8=Rockin' Sidney - Don't Mess With My Tush
TTITLE9=Zydeco All Stars - Hot Stepping Zydeco
TTITLE10=Rockin' Dopsie, Jr. - They All Ask'd For You
TTITLE11=Beau Jocque - Morning Train
TTITLE12=Fernerst Arceneaux - Don't Mess With My Toot Toot
TTITLE13=Rockin' Dopsie, Jr. - Fire
TTITLE14=Beau Jocque - Hot Tamale Baby
EXTD=
EXTT0=
EXTT1=
EXTT2=
EXTT3=
EXTT4=
EXTT5=
EXTT6=
EXTT7=
EXTT8=
EXTT9=
EXTT10=
EXTT11=
EXTT12=
EXTT13=
EXTT14=
PLAYORDER=
